# Blender 5.0.1
# www.blender.org
mtllib Armchair2.mtl
o ArmChair
v -3.000000 1.000000 4.250000
v -3.000000 4.059999 -4.250000
v -3.000000 1.000000 -4.250000
v 3.000000 1.000000 4.250000
v 3.000000 4.059999 -4.250000
v 3.000000 1.000000 -4.250000
v -4.000000 4.059999 -3.250000
v -4.000000 1.000000 -3.250000
v 4.000000 1.000000 -3.250000
v 4.000000 4.059999 -3.250000
v 3.000000 7.449999 -3.250000
v -3.000000 7.449999 -3.250000
v -3.000000 2.559999 4.250000
v 3.000000 2.559999 4.250000
v 4.000000 2.559999 -3.250000
v 3.000000 2.559999 -4.250000
v -3.000000 2.559999 -4.250000
v -4.000000 2.559999 -3.250000
v -4.000000 4.059999 -2.089719
v 4.000000 4.059999 -2.089719
v 4.000000 2.559999 -2.089719
v 4.000000 1.000000 -2.089719
v -4.000000 1.000000 -2.089719
v -4.000000 2.559999 -2.089719
v -3.000000 2.559999 4.521832
v -3.000000 4.059999 4.521832
v 3.000000 2.559999 4.521832
v 3.000000 4.059999 4.521832
v 3.000000 7.890265 -3.250000
v 2.825975 8.064290 -3.075976
v -2.825975 8.064290 -3.075976
v -3.000000 7.890265 -3.250000
v -2.838159 8.064290 -2.251561
v 2.824903 8.064290 -2.264817
v 2.587889 4.280922 4.123806
v 2.789164 4.212636 4.324291
v 2.588241 4.280922 -1.044607
v 2.789991 4.214652 -1.246358
v -2.588241 4.280922 -1.044607
v -2.789991 4.214652 -1.246358
v -2.587494 4.280922 4.123410
v -2.789164 4.212636 4.324291
v -3.000000 4.118739 -1.467341
v -3.000000 4.059999 -1.396611
v -2.962523 4.087598 -1.418890
v -2.915493 4.059999 -1.456367
v -3.000000 4.059999 -1.541924
v -2.967635 7.931166 -2.101669
v 3.000000 4.059999 -1.541924
v 2.915493 4.059999 -1.456367
v 2.962523 4.087598 -1.418890
v 3.000000 4.059999 -1.396611
v 3.000000 4.118739 -1.467341
v 3.000000 7.897340 -2.148872
v 2.966732 7.929505 -2.101669
v 2.915493 7.897890 -2.063401
v -4.000000 1.000000 4.152588
v -3.902589 1.000000 4.250000
v -3.902589 2.559999 4.250000
v -4.000000 2.559999 4.152588
v 4.000000 1.000000 4.152588
v 3.902589 1.000000 4.250000
v 3.902589 2.559999 4.250000
v 4.000000 2.559999 4.152588
v -3.902589 4.059999 -4.250000
v -4.000000 4.059999 -4.152588
v -3.902589 2.559999 -4.250000
v -4.000000 2.559999 -4.152588
v 4.000000 4.059999 -4.152588
v 3.902589 4.059999 -4.250000
v 4.000000 2.559999 -4.152588
v 3.902589 2.559999 -4.250000
v -3.902589 4.059999 4.250000
v -4.000000 4.059999 4.152587
v -4.000000 7.352589 4.152587
v -3.902589 7.352589 4.250000
v -3.902589 7.450000 4.152587
v -2.946349 4.098842 4.268905
v -3.000000 4.059999 4.152587
v -3.097411 4.059999 4.250000
v -3.000000 3.991119 4.250000
v -3.000000 4.059999 4.318880
v -3.097411 7.450000 4.152587
v -3.097411 7.352589 4.250000
v -3.000000 7.352589 4.152587
v -3.000000 7.450000 -2.158599
v -3.097411 7.450000 -2.089720
v -3.000000 7.352588 -2.071521
v -4.000000 7.352588 -2.089720
v -3.902589 7.450000 -2.089720
v 2.946349 4.098842 4.268905
v 3.000000 4.059999 4.318880
v 3.000000 3.991119 4.250000
v 3.097411 4.059999 4.250000
v 3.000000 4.059999 4.152587
v 3.097411 7.450000 4.152587
v 3.000000 7.352589 4.152587
v 3.097411 7.352589 4.250000
v 3.000000 7.352588 -2.071521
v 3.097411 7.450000 -2.089720
v 3.000000 7.450000 -2.158599
v 4.000000 4.059999 4.152587
v 3.902589 4.059999 4.250000
v 3.902589 7.450000 4.152587
v 3.902589 7.352589 4.250000
v 4.000000 7.352589 4.152587
v 3.902589 7.450000 -2.089720
v 4.000000 7.352588 -2.089720
v 3.902589 7.449999 -4.152588
v 4.000000 7.352588 -4.152588
v 3.902589 7.352588 -4.250000
v 4.000000 7.352588 -3.250000
v 3.902589 7.449999 -3.250000
v 3.000000 7.449999 -4.152588
v 3.000000 7.352588 -4.250000
v -3.000000 7.449999 -4.152588
v -3.000000 7.352588 -4.250000
v -3.902589 7.449999 -4.152588
v -3.902589 7.352588 -4.250000
v -4.000000 7.352588 -4.152588
v -3.902589 7.449999 -3.250000
v -4.000000 7.352588 -3.250000
v 4.000000 1.000000 -4.152588
v 3.902589 1.000000 -4.250000
v -3.902589 1.000000 -4.250000
v -4.000000 1.000000 -4.152588
v -2.915493 7.897890 -2.052338
v -3.000000 7.896898 -2.137809
v -3.135762 0.000000 3.135762
v -2.864238 0.000000 3.135762
v -3.297832 1.000000 3.297832
v -2.702168 1.000000 3.297832
v -3.297832 1.000000 2.702168
v -2.702168 1.000000 2.702168
v -3.135762 0.000000 2.864238
v -2.864238 0.000000 2.864238
v 2.864238 0.000000 3.135762
v 3.135762 0.000000 3.135762
v 2.702168 1.000000 3.297832
v 3.297832 1.000000 3.297832
v 2.702168 1.000000 2.702168
v 3.297832 1.000000 2.702168
v 2.864238 0.000000 2.864238
v 3.135762 0.000000 2.864238
v 2.864238 -0.000000 -2.864238
v 3.135762 -0.000000 -2.864238
v 2.702168 1.000000 -2.702168
v 3.297832 1.000000 -2.702168
v 2.702168 1.000000 -3.297832
v 3.297832 1.000000 -3.297832
v 2.864238 -0.000000 -3.135762
v 3.135762 -0.000000 -3.135762
v -3.135762 -0.000000 -2.864238
v -2.864238 -0.000000 -2.864238
v -3.297832 1.000000 -2.702168
v -2.702168 1.000000 -2.702168
v -3.297832 1.000000 -3.297832
v -2.702168 1.000000 -3.297832
v -3.135762 -0.000000 -3.135762
v -2.864238 -0.000000 -3.135762
v 2.088207 4.444897 -0.544607
v 2.087923 4.444898 3.623768
v -2.088169 4.444897 -0.544607
v -2.087566 4.444898 3.623448
v -2.415383 7.422080 -1.860000
v -2.415384 4.571984 -1.418843
v 2.415604 4.572129 -1.417917
v 2.415602 7.421935 -1.870092
v -2.941753 2.618246 4.580080
v -2.801159 2.758840 4.638316
v 2.801159 2.758840 4.638316
v 2.941753 2.618246 4.580080
v -2.941753 4.001752 4.580080
v -2.801159 3.861158 4.638316
v 2.941753 4.001752 4.580080
v 2.801159 3.861158 4.638316
vn 1.0000 -0.0000 -0.0000
vn -1.0000 -0.0000 -0.0000
vn -0.0000 -0.0000 -1.0000
vn -0.0000 -0.0000 1.0000
vn -0.0001 -1.0000 -0.0003
vn -0.0000 -1.0000 -0.0001
vn 0.0001 -1.0000 -0.0000
vn 1.0000 -0.0000 -0.0001
vn -0.0001 -1.0000 -0.0000
vn 0.6983 0.7158 -0.0024
vn 0.6983 0.7158 -0.0023
vn 0.6982 0.7159 -0.0022
vn -0.0000 0.7071 -0.7071
vn -0.1510 0.8734 0.4630
vn -0.7118 0.7023 -0.0071
vn -0.8650 0.4478 0.2264
vn 0.0007 0.7603 0.6495
vn 0.0001 0.7070 -0.7072
vn 0.2198 0.9088 0.3547
vn 0.0179 0.9997 -0.0177
vn 0.0179 0.9997 0.0182
vn -0.0179 0.9997 0.0183
vn -0.2198 0.9088 0.3546
vn 0.2855 0.9124 -0.2933
vn -0.0179 0.9997 -0.0177
vn 0.0177 0.9997 -0.0179
vn -0.0179 0.9997 0.0182
vn 0.0001 0.7571 0.6533
vn -0.2854 0.9124 -0.2932
vn -0.5895 0.8077 0.0013
vn -0.0000 0.8052 -0.5930
vn -1.0000 -0.0000 -0.0001
vn -0.3116 0.2406 0.9192
vn -0.5898 0.8075 0.0002
vn 0.4723 0.8665 -0.1614
vn -0.4723 0.8668 -0.1599
vn -0.5740 0.8170 0.0554
vn -0.5894 0.8078 0.0018
vn 0.5895 0.8078 0.0013
vn -0.0000 0.2006 0.9797
vn -0.0000 0.1562 0.9877
vn -0.7071 -0.0000 0.7071
vn 0.7071 -0.0000 0.7071
vn -0.7071 -0.0000 -0.7071
vn 0.7071 -0.0000 -0.7071
vn -0.7071 0.7071 -0.0000
vn -0.0000 0.7071 0.7071
vn 0.7071 0.7071 -0.0000
vn -0.0000 1.0000 -0.0000
vn -0.5898 0.8076 0.0002
vn -0.4724 0.8668 -0.1599
vn -0.5774 0.5774 0.5773
vn -0.4963 0.8157 0.2972
vn 0.5774 0.5774 0.5773
vn 0.4663 0.5896 0.6595
vn 0.4963 0.8157 0.2972
vn -0.4663 0.5896 0.6595
vn 0.5774 0.5774 -0.5773
vn -0.5774 0.5774 -0.5773
vn -0.0000 -0.1600 0.9871
vn -0.0000 -0.1600 -0.9871
vn -0.0000 -1.0000 -0.0000
vn 0.9871 -0.1600 -0.0000
vn -0.9871 -0.1600 -0.0000
vn -0.0180 0.9997 -0.0177
vn -0.0140 -0.0646 0.9978
vn -0.1189 0.5044 0.8552
vn -0.1189 -0.5044 0.8552
vn 0.0140 -0.0646 0.9978
vn 0.1189 -0.5044 0.8552
vn 0.0140 0.0646 0.9978
vn -0.0140 0.0646 0.9978
vn 0.1189 0.5044 0.8552
vn 0.5894 0.8078 0.0018
vt 0.074038 0.485178
vt 0.144914 0.429617
vt 0.144914 0.485178
vt 0.480143 0.405674
vt 0.551020 0.350113
vt 0.551020 0.405674
vt 0.074038 0.049264
vt 0.144914 0.336578
vt 0.074038 0.336578
vt 0.766060 0.793722
vt 0.692348 0.506408
vt 0.766060 0.506408
vt 0.000326 0.485178
vt 0.074038 0.429617
vt 0.000326 0.336578
vt 0.000326 0.049264
vt 0.480143 0.350113
vt 0.406431 0.405674
vt 0.406431 0.350113
vt 0.685500 0.733770
vt 0.677046 0.472978
vt 0.690392 0.459397
vt 0.612955 0.727665
vt 0.617071 0.716187
vt 0.674398 0.721811
vt 0.757871 0.290359
vt 0.765623 0.296492
vt 0.768878 0.321199
vt 0.717321 0.329040
vt 0.725472 0.024475
vt 0.726954 0.317417
vt 0.764396 0.046281
vt 0.756933 0.051842
vt 0.768093 0.021669
vt 0.941512 0.000784
vt 0.943305 0.000330
vt 0.950945 0.015110
vt 0.715063 0.000330
vt 0.715063 0.341364
vt 0.716204 0.012618
vt 0.604972 0.710507
vt 0.357384 0.730752
vt 0.595928 0.701925
vt 0.594878 0.489062
vt 0.604068 0.479595
vt 0.347482 0.742366
vt 0.349271 0.481343
vt 0.381588 0.702798
vt 0.572401 0.512057
vt 0.573642 0.681300
vt 0.615300 0.473134
vt 0.609382 0.723536
vt 0.338633 0.470533
vt 0.598294 0.465207
vt 0.325961 0.462885
vt 0.933541 0.000330
vt 0.767531 0.048423
vt 0.930792 0.341364
vt 0.768469 0.294560
vt 0.938918 0.325287
vt 0.328091 0.459852
vt 0.324987 0.457697
vt 0.899877 0.450358
vt 0.898264 0.453411
vt 0.899877 0.455492
vt 0.335169 0.750915
vt 0.337535 0.753827
vt 0.334554 0.756225
vt 0.607846 0.466183
vt 0.603532 0.468721
vt 0.608592 0.459709
vt 0.600547 0.725619
vt 0.792446 0.055141
vt 0.922824 0.290745
vt 0.793672 0.287456
vt 0.406431 0.044600
vt 0.480143 0.051197
vt 0.406431 0.051197
vt 0.480143 0.044600
vt 0.551020 0.051197
vt 0.000326 0.784095
vt 0.074038 0.790692
vt 0.000326 0.790692
vt 0.074038 0.784095
vt 0.144914 0.790692
vt 0.551020 0.448895
vt 0.706598 0.455492
vt 0.551020 0.455492
vt 0.480143 0.448895
vt 0.480143 0.455492
vt 0.406431 0.448895
vt 0.144914 0.379799
vt 0.300493 0.386396
vt 0.144914 0.386396
vt 0.074038 0.379799
vt 0.074038 0.386396
vt 0.000326 0.379799
vt 0.551020 0.044600
vt 0.706598 0.051197
vt 0.713108 0.051197
vt 0.706598 0.350113
vt 0.706598 0.044600
vt 0.713108 0.006043
vt 0.713108 0.044600
vt 0.300161 0.999024
vt 0.306689 0.840896
vt 0.306689 0.999024
vt 0.300161 0.834261
vt 0.005204 0.840896
vt 0.005204 0.834261
vt 0.713108 0.350113
vt 0.706598 0.405674
vt 0.320702 0.923535
vt 0.327253 0.764865
vt 0.327253 0.923535
vt 0.992515 0.501744
vt 0.999024 0.463187
vt 0.999024 0.501744
vt 0.327253 0.758207
vt 0.623218 0.764865
vt 0.144914 0.784095
vt 0.300493 0.790692
vt 0.300493 0.784095
vt 0.307002 0.485178
vt 0.307002 0.784095
vt 0.300493 0.485178
vt 0.307002 0.429617
vt 0.300493 0.379799
vt 0.307002 0.336578
vt 0.307002 0.379799
vt 0.307002 0.386396
vt 0.300493 0.429617
vt 0.300493 0.336578
vt 0.307002 0.049264
vt 0.300493 0.049264
vt 0.307002 0.006043
vt 0.706598 0.448895
vt 0.713108 0.405674
vt 0.713108 0.448895
vt 0.547765 0.001379
vt 0.551020 0.006043
vt 0.401221 0.049264
vt 0.349651 0.049264
vt 0.349651 0.006043
vt 0.144914 0.049264
vt 0.074038 0.006043
vt 0.144914 0.006043
vt 0.399400 0.125412
vt 0.357443 0.064059
vt 0.404475 0.121770
vt 0.349651 0.336578
vt 0.836936 0.501744
vt 0.992515 0.463187
vt 0.480143 0.001379
vt 0.692348 0.463187
vt 0.766060 0.463187
vt 0.000326 0.386396
vt 0.000326 0.006043
vt 0.005204 0.795704
vt 0.300161 0.795704
vt 0.037188 0.999024
vt 0.033836 0.996203
vt 0.594489 0.920704
vt 0.591125 0.923535
vt 0.357443 0.455492
vt 0.357443 0.125412
vt 0.833682 0.506408
vt 0.836936 0.463187
vt 0.709853 0.050313
vt 0.602728 0.460738
vt 0.706598 0.006043
vt 0.709853 0.000330
vt 0.000326 0.837090
vt 0.606705 0.729624
vt 0.995770 0.507456
vt 0.623218 0.758207
vt 0.628113 0.761047
vt 0.995770 0.457474
vt 0.303748 0.385512
vt 0.300493 0.006043
vt 0.303748 0.000330
vt 0.681714 0.813382
vt 0.638747 0.785846
vt 0.686053 0.785846
vt 0.355488 0.397493
vt 0.320702 0.426165
vt 0.320702 0.397493
vt 0.641108 0.745759
vt 0.690392 0.758311
vt 0.643086 0.758311
vt 0.911161 0.435307
vt 0.898264 0.448376
vt 0.898264 0.435307
vt 0.677375 0.840917
vt 0.634408 0.813382
vt 0.766802 0.408248
vt 0.723757 0.375797
vt 0.771149 0.375797
vt 0.926556 0.343346
vt 0.898264 0.372017
vt 0.898264 0.343346
vt 0.715063 0.440700
vt 0.764437 0.455492
vt 0.717045 0.455492
vt 0.926013 0.435307
vt 0.913116 0.448376
vt 0.913116 0.435307
vt 0.762455 0.440700
vt 0.719410 0.408248
vt 0.728104 0.343346
vt 0.775496 0.343346
vt 0.891962 0.375797
vt 0.848917 0.343346
vt 0.896308 0.343346
vt 0.926556 0.373999
vt 0.898264 0.402671
vt 0.898264 0.373999
vt 0.840223 0.408248
vt 0.889596 0.423041
vt 0.842205 0.423041
vt 0.940865 0.435307
vt 0.927968 0.448376
vt 0.927968 0.435307
vt 0.887615 0.408248
vt 0.844570 0.375797
vt 0.885249 0.455492
vt 0.824843 0.455492
vt 0.781798 0.423041
vt 0.829190 0.423041
vt 0.926556 0.404653
vt 0.898264 0.433325
vt 0.898264 0.404653
vt 0.784163 0.375797
vt 0.833537 0.390589
vt 0.786145 0.390589
vt 0.013222 0.950176
vt 0.000326 0.963246
vt 0.000326 0.950176
vt 0.831555 0.375797
vt 0.788510 0.343346
vt 0.835902 0.343346
vt 0.374884 0.507592
vt 0.920621 0.050178
vt 0.938918 0.015626
vt 0.667000 0.482966
vt 0.619035 0.476874
vt 0.673195 0.476754
vt 0.664885 0.711504
vt 0.670765 0.717896
vt 0.626720 0.708102
vt 0.625180 0.482966
vt 0.620871 0.713254
vt 0.692348 0.793722
vt 0.000326 0.429617
vt 0.950945 0.277197
vt 0.941495 0.270763
vt 0.943322 0.275626
vt 0.605289 0.721528
vt 0.329517 0.457474
vt 0.320702 0.459844
vt 0.330074 0.754369
vt 0.339139 0.756121
vt 0.406431 0.455492
vt 0.300161 0.840896
vt 0.320702 0.764865
vt 0.404475 0.006043
vt 0.404475 0.044600
vt 0.404475 0.064059
vt 0.349651 0.379799
vt 0.406431 0.001379
vt 0.399400 0.455492
vt 0.355488 0.426165
vt 0.688414 0.745759
vt 0.911161 0.448376
vt 0.630069 0.840917
vt 0.926556 0.372017
vt 0.926013 0.448376
vt 0.926556 0.402671
vt 0.940865 0.448376
vt 0.837858 0.455492
vt 0.777451 0.455492
vt 0.926556 0.433325
vt 0.013222 0.963246
s 1
usemtl ArmChair:lambert3SG
f 21/1/1 10/2/1 20/3/1
f 18/4/2 19/5/2 7/6/2
f 17/7/3 5/8/3 16/9/3
f 13/10/4 4/11/4 14/12/4
f 22/13/1 15/14/1 21/1/1
f 17/7/3 6/15/3 3/16/3
f 24/17/2 8/18/2 23/19/2
f 14/20/5 25/21/6 13/22/7
f 93/23/1 28/24/8 27/25/9
f 34/26/10 55/27/10 54/28/11
f 29/29/12 31/30/13 30/31/10
f 48/32/14 33/33/15 128/34/16
f 56/35/17 55/36/10 34/37/10
f 31/30/13 34/26/10 30/31/10
f 12/38/3 29/29/12 11/39/3
f 12/38/3 128/34/16 32/40/18
f 54/28/11 11/39/3 29/29/12
f 36/41/19 37/42/20 35/43/21
f 36/41/19 41/44/22 42/45/23
f 38/46/24 39/47/25 37/42/20
f 39/47/25 42/45/23 41/44/22
f 161/48/26 164/49/27 162/50/21
f 28/24/8 42/45/23 26/51/28
f 92/52/1 36/41/19 28/24/8
f 40/53/29 79/54/30 42/45/23
f 38/46/24 46/55/31 40/53/29
f 47/56/32 127/57/33 128/34/16
f 49/58/1 56/59/17 50/60/31
f 45/61/34 46/55/31 43/62/35
f 127/63/33 48/64/14 128/65/16
f 50/66/31 51/67/31 53/68/36
f 54/28/11 55/27/10 56/59/17
f 82/69/37 42/45/23 78/70/38
f 81/71/2 25/21/6 26/51/28
f 38/46/24 36/41/19 95/72/39
f 165/73/40 167/74/41 168/75/41
f 58/76/42 60/77/42 57/78/42
f 59/79/42 74/80/42 60/77/42
f 61/81/43 63/82/43 62/83/43
f 64/84/43 103/85/43 63/82/43
f 66/86/44 119/87/44 65/88/44
f 65/88/44 68/89/44 66/86/44
f 67/90/44 126/91/44 68/89/44
f 70/92/45 110/93/45 69/94/45
f 69/94/45 72/95/45 70/92/45
f 71/96/45 124/97/45 72/95/45
f 73/98/42 75/99/42 74/80/42
f 77/100/46 89/101/46 75/99/46
f 76/102/47 83/103/47 77/104/47
f 79/105/43 84/106/43 80/107/43
f 83/108/48 88/109/48 87/110/48
f 90/111/46 122/112/46 89/101/46
f 94/113/42 97/114/42 95/115/42
f 98/116/47 104/117/47 96/118/47
f 96/119/46 99/120/46 97/114/46
f 102/121/43 105/122/43 103/85/43
f 106/123/48 107/124/48 104/125/48
f 108/126/48 113/127/48 107/124/48
f 111/128/13 114/129/13 109/130/13
f 109/131/48 112/132/48 110/93/48
f 115/133/13 116/134/13 114/129/13
f 117/135/13 118/136/13 116/134/13
f 120/137/46 121/138/46 118/139/46
f 73/98/4 81/140/4 80/141/4
f 86/142/49 12/143/49 121/144/49
f 2/145/3 67/146/3 65/147/3
f 100/148/49 113/149/49 101/150/49
f 16/9/3 70/92/3 72/95/3
f 18/4/2 66/86/2 68/89/2
f 15/14/1 69/94/1 10/2/1
f 11/151/49 109/130/49 114/129/49
f 12/143/49 114/129/49 116/134/49
f 12/143/49 118/136/49 121/144/49
f 80/141/4 76/102/4 73/98/4
f 19/5/2 122/112/2 7/6/2
f 94/152/4 105/153/4 98/116/4
f 20/3/1 112/132/1 108/126/1
f 69/94/1 112/132/1 10/2/1
f 5/8/3 111/128/3 70/92/3
f 2/145/3 115/133/3 5/8/3
f 65/147/3 117/135/3 2/145/3
f 7/6/2 120/137/2 66/86/2
f 58/76/4 13/154/4 59/79/4
f 14/12/4 62/155/4 63/156/4
f 15/14/1 123/157/1 71/96/1
f 16/9/3 124/97/3 6/15/3
f 17/7/3 125/158/3 67/146/3
f 126/91/2 18/4/2 68/89/2
f 19/5/2 75/99/2 89/101/2
f 83/108/49 90/159/49 77/160/49
f 88/109/1 44/161/50 43/162/35
f 99/120/2 53/163/36 52/164/51
f 100/148/49 104/165/49 107/166/49
f 20/3/1 106/123/1 102/121/1
f 21/1/1 102/121/1 64/84/1
f 61/81/1 21/1/1 64/84/1
f 24/17/2 57/78/2 60/77/2
f 24/17/2 74/80/2 19/5/2
f 93/167/4 63/156/4 103/168/4
f 75/169/52 76/102/52 77/104/52
f 79/54/30 80/170/53 81/71/2
f 83/103/54 84/171/54 85/172/54
f 86/173/55 87/110/55 88/109/55
f 93/23/1 94/174/56 95/72/39
f 96/118/52 97/175/52 98/116/52
f 99/120/57 100/176/57 101/177/57
f 104/117/54 105/153/54 106/178/54
f 109/130/58 110/179/58 111/128/58
f 118/136/59 119/180/59 120/181/59
f 130/182/60 131/183/60 129/184/60
f 132/185/49 133/186/49 131/187/49
f 134/188/61 135/189/61 133/190/61
f 136/191/62 129/192/62 135/193/62
f 136/194/63 132/195/63 130/182/63
f 129/184/64 133/190/64 135/189/64
f 138/196/60 139/197/60 137/198/60
f 140/199/49 141/200/49 139/201/49
f 142/202/61 143/203/61 141/204/61
f 144/205/62 137/206/62 143/207/62
f 144/208/63 140/209/63 138/196/63
f 137/198/64 141/210/64 143/211/64
f 146/212/60 147/213/60 145/214/60
f 148/215/49 149/216/49 147/217/49
f 150/218/61 151/219/61 149/220/61
f 152/221/62 145/222/62 151/223/62
f 152/224/63 148/225/63 146/212/63
f 145/226/64 149/220/64 151/219/64
f 154/227/60 155/228/60 153/229/60
f 156/230/49 157/231/49 155/232/49
f 158/233/61 159/234/61 157/235/61
f 160/236/62 153/237/62 159/238/62
f 160/239/63 156/240/63 154/241/63
f 153/229/64 157/235/64 159/234/64
f 35/43/21 161/48/26 162/50/21
f 37/42/20 163/242/65 161/48/26
f 41/44/22 163/242/65 39/47/25
f 41/44/22 162/50/21 164/49/27
f 127/57/33 166/243/41 165/73/40
f 50/60/31 166/243/41 46/244/31
f 50/60/31 168/75/41 167/74/41
f 127/57/33 168/75/41 56/59/17
f 170/245/66 173/246/67 169/247/68
f 169/247/68 171/248/69 170/245/66
f 172/249/70 176/250/71 171/248/69
f 174/251/72 175/252/73 173/246/67
f 25/21/6 172/249/70 169/247/68
f 169/247/68 26/51/28 25/21/6
f 173/246/67 28/24/8 26/51/28
f 27/25/9 175/252/73 172/249/70
f 170/245/66 176/250/71 174/251/72
f 21/1/1 15/14/1 10/2/1
f 18/4/2 24/17/2 19/5/2
f 17/7/3 2/145/3 5/8/3
f 13/10/4 1/253/4 4/11/4
f 22/13/1 9/254/1 15/14/1
f 17/7/3 16/9/3 6/15/3
f 24/17/2 18/4/2 8/18/2
f 14/20/5 27/25/9 25/21/6
f 27/25/9 14/20/5 93/23/1
f 93/23/1 92/52/1 28/24/8
f 54/28/11 29/29/12 30/31/10
f 30/31/10 34/26/10 54/28/11
f 29/29/12 32/40/18 31/30/13
f 33/33/15 31/30/13 128/34/16
f 31/30/13 32/40/18 128/34/16
f 34/37/10 33/255/15 127/256/33
f 33/255/15 48/257/14 127/256/33
f 127/256/33 56/35/17 34/37/10
f 31/30/13 33/33/15 34/26/10
f 12/38/3 32/40/18 29/29/12
f 12/38/3 47/56/32 128/34/16
f 54/28/11 49/58/1 11/39/3
f 36/41/19 38/46/24 37/42/20
f 36/41/19 35/43/21 41/44/22
f 38/46/24 40/53/29 39/47/25
f 39/47/25 40/53/29 42/45/23
f 161/48/26 163/242/65 164/49/27
f 28/24/8 36/41/19 42/45/23
f 92/52/1 91/258/74 36/41/19
f 40/53/29 45/61/34 44/259/50
f 44/259/50 79/54/30 40/53/29
f 79/54/30 78/70/38 42/45/23
f 38/46/24 51/67/31 50/66/31
f 50/66/31 46/55/31 38/46/24
f 46/55/31 45/61/34 40/53/29
f 47/56/32 46/244/31 127/57/33
f 49/58/1 54/28/11 56/59/17
f 47/260/32 43/62/35 46/55/31
f 43/62/35 44/259/50 45/61/34
f 53/68/36 49/261/1 50/66/31
f 51/67/31 52/262/51 53/68/36
f 82/69/37 26/51/28 42/45/23
f 26/51/28 82/69/37 81/71/2
f 81/71/2 13/22/7 25/21/6
f 36/41/19 91/258/74 95/72/39
f 95/72/39 52/262/51 38/46/24
f 52/262/51 51/67/31 38/46/24
f 165/73/40 166/243/41 167/74/41
f 58/76/42 59/79/42 60/77/42
f 59/79/42 73/98/42 74/80/42
f 61/81/43 64/84/43 63/82/43
f 64/84/43 102/121/43 103/85/43
f 66/86/44 120/137/44 119/87/44
f 65/88/44 67/90/44 68/89/44
f 67/90/44 125/263/44 126/91/44
f 70/92/45 111/128/45 110/93/45
f 69/94/45 71/96/45 72/95/45
f 71/96/45 123/157/45 124/97/45
f 73/98/42 76/102/42 75/99/42
f 77/100/46 90/111/46 89/101/46
f 76/102/47 84/171/47 83/103/47
f 79/105/43 85/264/43 84/106/43
f 83/108/48 85/264/48 88/109/48
f 90/111/46 121/138/46 122/112/46
f 94/113/42 98/265/42 97/114/42
f 98/116/47 105/153/47 104/117/47
f 96/119/46 100/176/46 99/120/46
f 102/121/43 106/123/43 105/122/43
f 106/123/48 108/126/48 107/124/48
f 108/126/48 112/132/48 113/127/48
f 111/128/13 115/133/13 114/129/13
f 109/131/48 113/127/48 112/132/48
f 115/133/13 117/135/13 116/134/13
f 117/135/13 119/180/13 118/136/13
f 120/137/46 122/112/46 121/138/46
f 73/98/4 59/79/4 81/140/4
f 59/79/4 13/154/4 81/140/4
f 121/144/49 90/266/49 87/267/49
f 87/267/49 86/142/49 121/144/49
f 2/145/3 17/7/3 67/146/3
f 107/166/49 113/149/49 100/148/49
f 113/149/49 11/268/49 101/150/49
f 16/9/3 5/8/3 70/92/3
f 18/4/2 7/6/2 66/86/2
f 15/14/1 71/96/1 69/94/1
f 11/151/49 113/269/49 109/130/49
f 12/143/49 11/151/49 114/129/49
f 12/143/49 116/134/49 118/136/49
f 80/141/4 84/171/4 76/102/4
f 19/5/2 89/101/2 122/112/2
f 94/152/4 103/168/4 105/153/4
f 20/3/1 10/2/1 112/132/1
f 69/94/1 110/93/1 112/132/1
f 5/8/3 115/133/3 111/128/3
f 2/145/3 117/135/3 115/133/3
f 65/147/3 119/180/3 117/135/3
f 7/6/2 122/112/2 120/137/2
f 58/76/4 1/270/4 13/154/4
f 14/12/4 4/11/4 62/155/4
f 15/14/1 9/254/1 123/157/1
f 16/9/3 72/95/3 124/97/3
f 17/7/3 3/16/3 125/158/3
f 126/91/2 8/18/2 18/4/2
f 19/5/2 74/80/2 75/99/2
f 83/108/49 87/110/49 90/159/49
f 88/109/1 85/264/1 44/161/50
f 85/264/1 79/105/1 44/161/50
f 95/115/2 97/114/2 52/164/51
f 97/114/2 99/120/2 52/164/51
f 100/148/49 96/271/49 104/165/49
f 20/3/1 108/126/1 106/123/1
f 21/1/1 20/3/1 102/121/1
f 61/81/1 22/13/1 21/1/1
f 24/17/2 23/19/2 57/78/2
f 24/17/2 60/77/2 74/80/2
f 103/168/4 94/152/4 93/167/4
f 93/167/4 14/12/4 63/156/4
f 82/69/37 78/70/38 81/71/2
f 78/70/38 79/54/30 81/71/2
f 95/72/39 91/258/74 93/23/1
f 91/258/74 92/52/1 93/23/1
f 130/182/60 132/195/60 131/183/60
f 132/185/49 134/272/49 133/186/49
f 134/188/61 136/273/61 135/189/61
f 136/191/62 130/274/62 129/192/62
f 136/194/63 134/275/63 132/195/63
f 129/184/64 131/183/64 133/190/64
f 138/196/60 140/209/60 139/197/60
f 140/199/49 142/276/49 141/200/49
f 142/202/61 144/208/61 143/203/61
f 144/205/62 138/277/62 137/206/62
f 144/208/63 142/202/63 140/209/63
f 137/198/64 139/197/64 141/210/64
f 146/212/60 148/225/60 147/213/60
f 148/215/49 150/278/49 149/216/49
f 150/218/61 152/224/61 151/219/61
f 152/221/62 146/279/62 145/222/62
f 152/224/63 150/218/63 148/225/63
f 145/226/64 147/280/64 149/220/64
f 154/227/60 156/281/60 155/228/60
f 156/230/49 158/282/49 157/231/49
f 158/233/61 160/239/61 159/234/61
f 160/236/62 154/283/62 153/237/62
f 160/239/63 158/233/63 156/240/63
f 153/229/64 155/228/64 157/235/64
f 35/43/21 37/42/20 161/48/26
f 37/42/20 39/47/25 163/242/65
f 41/44/22 164/49/27 163/242/65
f 41/44/22 35/43/21 162/50/21
f 127/57/33 46/244/31 166/243/41
f 50/60/31 167/74/41 166/243/41
f 50/60/31 56/59/17 168/75/41
f 127/57/33 165/73/40 168/75/41
f 170/245/66 174/251/72 173/246/67
f 169/247/68 172/249/70 171/248/69
f 172/249/70 175/252/73 176/250/71
f 174/251/72 176/250/71 175/252/73
f 25/21/6 27/25/9 172/249/70
f 169/247/68 173/246/67 26/51/28
f 173/246/67 175/252/73 28/24/8
f 27/25/9 28/24/8 175/252/73
f 170/245/66 171/248/69 176/250/71
