# Blender 5.0.1
# www.blender.org
mtllib tv_screen.mtl
o hooks_Cube.004
o tv-screen_Cube.003
v -47.016384 -24.371109 4.183101
v -47.016384 29.327635 4.183093
v 47.016384 -24.371109 4.183101
v 47.016384 29.327635 4.183093
vn -0.0000 -0.0000 1.0000
vt 1.000000 1.000000
vt 0.000000 0.000000
vt 1.000000 0.000000
vt 0.000000 1.000000
s 1
usemtl screen-tv.001
f 4/1/1 1/2/1 3/3/1
f 4/1/1 2/4/1 1/2/1
o tv_Cube.001
v -47.016384 -24.371109 4.388148
v -47.016384 29.327635 4.388140
v 47.016384 -24.371109 4.388148
v 47.016384 29.327635 4.388140
v -47.016384 -24.371109 4.183101
v -47.016384 29.327635 4.183093
v 47.016384 -24.371109 4.183101
v 47.016384 29.327635 4.183093
vn -1.0000 -0.0000 -0.0000
vn -0.0000 -1.0000 -0.0000
vn -0.0000 1.0000 -0.0000
vn 1.0000 -0.0000 -0.0000
vt 0.661081 0.192259
vt 0.712285 0.248646
vt 0.689107 0.186412
vt 0.860645 0.192097
vt 0.832620 0.186291
vt 0.708348 0.243286
vt 0.813522 0.243206
vt 0.809583 0.248564
s 1
usemtl tv-black.001
f 5/5/2 10/6/2 9/7/2
f 7/8/3 9/7/3 11/9/3
f 7/8/3 5/5/3 9/7/3
f 5/5/2 6/10/2 10/6/2
f 6/10/4 8/11/4 12/12/4
f 8/11/5 7/8/5 11/9/5
f 8/11/5 11/9/5 12/12/5
f 6/10/4 12/12/4 10/6/4
